<?xml version="1.0" encoding="UTF-8"?>
<!DOCTYPE svg PUBLIC "-//W3C//DTD SVG 1.1//EN" "http://www.w3.org/Graphics/SVG/1.1/DTD/svg11.dtd">
<!-- Creator: CorelDRAW 2019 (64-Bit) -->
<svg xmlns="http://www.w3.org/2000/svg" xml:space="preserve" width="500mm" height="148.195mm" version="1.1" style="shape-rendering:geometricPrecision; text-rendering:geometricPrecision; image-rendering:optimizeQuality; fill-rule:evenodd; clip-rule:evenodd"
viewBox="0 0 798.72 236.73"
 xmlns:xlink="http://www.w3.org/1999/xlink"
 xmlns:xodm="http://www.corel.com/coreldraw/odm/2003">
 <defs>
  <style type="text/css">
   <![CDATA[
    .fil0 {fill:#1F1B20}
    .fil4 {fill:url(#id0)}
    .fil2 {fill:url(#id1)}
    .fil7 {fill:url(#id2)}
    .fil5 {fill:url(#id3)}
    .fil1 {fill:url(#id4)}
    .fil3 {fill:url(#id5)}
    .fil6 {fill:url(#id6)}
    .fil8 {fill:url(#id7)}
    .fil9 {fill:url(#id8)}
   ]]>
  </style>
  <linearGradient id="id0" gradientUnits="userSpaceOnUse" x1="459.3" y1="112.01" x2="533.45" y2="149.46">
   <stop offset="0" style="stop-opacity:1; stop-color:#FAE27B"/>
   <stop offset="0.2" style="stop-opacity:1; stop-color:#B98128"/>
   <stop offset="0.509804" style="stop-opacity:1; stop-color:#FAE27B"/>
   <stop offset="0.521569" style="stop-opacity:1; stop-color:#FDF3AB"/>
   <stop offset="0.588235" style="stop-opacity:1; stop-color:#FAE27B"/>
   <stop offset="0.839216" style="stop-opacity:1; stop-color:#B98128"/>
   <stop offset="1" style="stop-opacity:1; stop-color:#FAE27B"/>
  </linearGradient>
  <linearGradient id="id1" gradientUnits="userSpaceOnUse" xlink:href="#id0" x1="704.91" y1="112.01" x2="780.12" y2="149.46">
  </linearGradient>
  <linearGradient id="id2" gradientUnits="userSpaceOnUse" xlink:href="#id0" x1="232.79" y1="112.01" x2="307.99" y2="149.46">
  </linearGradient>
  <linearGradient id="id3" gradientUnits="userSpaceOnUse" xlink:href="#id0" x1="431.06" y1="67.29" x2="426.69" y2="169.58">
  </linearGradient>
  <linearGradient id="id4" gradientUnits="userSpaceOnUse" xlink:href="#id0" x1="22.94" y1="76.03" x2="213.79" y2="160.7">
  </linearGradient>
  <linearGradient id="id5" gradientUnits="userSpaceOnUse" xlink:href="#id0" x1="562.99" y1="111.61" x2="679.75" y2="148.38">
  </linearGradient>
  <linearGradient id="id6" gradientUnits="userSpaceOnUse" xlink:href="#id0" x1="330.34" y1="94.79" x2="401.53" y2="142.08">
  </linearGradient>
  <linearGradient id="id7" gradientUnits="userSpaceOnUse" xlink:href="#id0" x1="128.39" y1="101.21" x2="169.74" y2="101.21">
  </linearGradient>
  <linearGradient id="id8" gradientUnits="userSpaceOnUse" xlink:href="#id0" x1="47.55" y1="98.36" x2="188.84" y2="138.37">
  </linearGradient>
 </defs>
 <g id="Слой_x0020_1">
  <metadata id="CorelCorpID_0Corel-Layer"/>
  <path class="fil0" d="M313.89 174.12c-11.23,10.06 -29.18,11.7 -43.5,11.7 -19.17,0 -34.55,-6.46 -44.34,-18.26 -18.68,40.81 -59.87,69.16 -107.69,69.16 -65.37,0 -118.37,-53 -118.37,-118.37 0,-65.37 53,-118.37 118.37,-118.37 54.71,0 100.75,37.13 114.31,87.56 9.57,-7.73 22.45,-11.91 37.71,-11.91 17.32,0 31.71,5.27 41.6,15.07l0 -19.74c0,-10.23 8.18,-18.44 18.42,-18.44l16.15 0c10.24,0 18.42,8.21 18.42,18.44l0 16.83c4.72,-6.53 12.33,-10.67 20.56,-10.67l13.63 0c1.09,0 2.17,0.09 3.22,0.26l0 -6.42c0,-10.24 8.17,-18.44 18.42,-18.44l16.15 0c10.25,0 18.41,8.2 18.41,18.44l0 17.43c11.08,-11.05 29.76,-12.75 44.56,-12.75 14.35,0 29.34,3.45 39.84,13.86 0.84,0.83 1.63,1.69 2.38,2.57 1.61,-8.55 9.05,-14.95 18.09,-14.95l16.15 0c3.33,0 6.45,0.87 9.14,2.4 5.2,-2.51 10.93,-3.88 17.69,-3.88 10.42,0 19.43,2.82 26.78,8.52 7.71,-5.23 16.44,-8.52 26.27,-8.52 9.45,0 18.74,2.18 26.57,7.66 5.61,3.93 9.68,8.95 12.52,14.61 9.53,-14.28 26.08,-22.27 47.16,-22.27 33.6,0 56.2,19.82 56.2,54.13l0 4.15c0,4.18 -1.37,8.02 -3.68,11.1 0.66,1.9 1.02,3.95 1.02,6.09 0,5.99 -1.49,11.74 -4.73,16.8 -10.02,15.63 -31.93,17.92 -48.8,17.92 -17.75,0 -32.25,-5.54 -42.07,-15.73 -1.87,8.19 -9.15,14.24 -17.95,14.24l-16.15 0c-9.01,0 -16.43,-6.35 -18.08,-14.85l-0.75 0c-1.64,8.5 -9.07,14.85 -18.08,14.85l-16.15 0c-9.01,0 -16.43,-6.35 -18.08,-14.85l-0.75 0c-1.64,8.5 -9.07,14.85 -18.08,14.85l-16.15 0c-5.27,0 -9.99,-2.17 -13.34,-5.67 -3.34,3.5 -8.07,5.67 -13.34,5.67l-13.93 0c-3.31,0 -6.4,-0.86 -9.07,-2.36 -6.75,2.61 -13.92,3.84 -21.6,3.84 -12.64,0 -26.01,-3.16 -35.62,-11.47 -3.04,5.95 -9.21,9.99 -16.4,9.99l-16.15 0c-3.38,0 -6.53,-0.89 -9.23,-2.45 -2.81,1.63 -6.06,2.45 -9.44,2.45l-13.63 0c-9.6,0 -18.07,-5.42 -23.02,-13.48l-0.84 -1.37c-1.65,8.5 -9.07,14.85 -18.08,14.85l-16.15 0c-7.28,0 -13.52,-4.14 -16.52,-10.22zm88.5 -40.58l0 -5.31c-0.61,0.93 -1.25,1.83 -1.93,2.71 0.67,0.84 1.31,1.71 1.93,2.6z"/>
  <path class="fil1" d="M118.37 13.97c57.66,0 104.4,46.74 104.4,104.4 0,57.66 -46.74,104.4 -104.4,104.4 -57.66,0 -104.4,-46.74 -104.4,-104.4 0,-57.65 46.74,-104.4 104.4,-104.4z"/>
  <path class="fil2" d="M780.3 138.37c2.52,0 4.45,-1.92 4.45,-4.45l0 -4.15c0,-26.08 -15.86,-40.16 -42.23,-40.16 -26.23,0 -42.23,14.52 -42.23,41.2 0,26.82 15.85,41.05 42.23,41.05 23.71,0 39.57,-5.34 39.57,-20.75 0,-2.52 -1.93,-4.44 -4.45,-4.44l-10.82 0c-3.7,0 -6.37,1.48 -8.3,3.85 -2.52,3.11 -8,4.89 -14.22,4.89 -12.15,0 -17.49,-5.19 -18.52,-17.04l54.53 0z"/>
  <path class="fil3" d="M608.85 165.93c0,2.52 1.93,4.45 4.45,4.45l16.15 0c2.52,0 4.45,-1.93 4.45,-4.45l0 -41.49c0,-2.07 -0.15,-4.15 -0.45,-6.22 5.19,-7.11 10.97,-11.11 15.86,-11.11 8,0 12.6,5.04 12.6,17.34l0 41.49c0,2.52 1.92,4.45 4.45,4.45l16.15 0c2.52,0 4.44,-1.93 4.44,-4.45l0 -41.49c0,-24.6 -12.59,-34.83 -30.67,-34.83 -10.22,0 -19.26,5.34 -27.56,13.93 -5.63,-9.19 -13.63,-13.93 -25.49,-13.93 -10.37,0 -16.6,4.89 -22.38,10.52l0 -4.59c0,-2.52 -1.93,-4.44 -4.45,-4.44l-16.15 0c-2.52,0 -4.44,1.93 -4.44,4.44l0 70.39c0,2.52 1.93,4.45 4.44,4.45l16.15 0c2.52,0 4.45,-1.93 4.45,-4.45l0 -48.46c4.59,-6.37 9.19,-10.37 15.41,-10.37 8,0 12.6,5.04 12.6,17.34l0 41.49z"/>
  <path class="fil4" d="M498.15 106.06c9.93,0 14.82,3.56 14.82,15.12l-24 0c-19.41,0 -34.23,8.45 -34.23,25.19 0,16.74 14.82,25.49 34.23,25.49 11.41,0 19.56,-3.41 26.23,-8.15l0 2.22c0,2.52 1.93,4.45 4.44,4.45l13.93 0c2.52,0 4.44,-1.93 4.44,-4.45l0 -44.75c0,-22.67 -16.74,-31.56 -38.08,-31.56 -24.01,0 -39.42,5.34 -39.42,20.75 0,2.52 1.93,4.45 4.45,4.45l10.82 0c3.7,0 6.37,-1.48 8.3,-3.85 2.52,-3.11 8,-4.89 14.07,-4.89z"/>
  <path class="fil5" d="M436.95 170.38c2.52,0 4.44,-1.93 4.44,-4.47l0 -94.94c0,-2.55 -1.93,-4.47 -4.44,-4.47l-16.15 0c-2.52,0 -4.45,1.92 -4.45,4.47l0 94.94c0,2.54 1.93,4.47 4.45,4.47l16.15 0z"/>
  <path class="fil6" d="M351.01 70.97c0,-2.52 -1.93,-4.47 -4.45,-4.47l-16.15 0c-2.52,0 -4.45,1.95 -4.45,4.47l0 94.96c0,2.52 1.92,4.45 4.45,4.45l16.15 0c2.52,0 4.45,-1.93 4.45,-4.45l0 -26.97c6.67,0 13.19,3.11 17.19,9.63l9.19 14.97c2.37,3.85 6.37,6.82 11.11,6.82l13.63 0c3.85,0 4.89,-2.96 2.52,-6.82l-12.3 -19.86c-4.45,-7.12 -9.34,-11.26 -15.41,-13.04 6.37,-1.34 12.3,-6.52 15.41,-13.04l9.34 -19.71c1.78,-3.85 1.33,-6.82 -2.52,-6.82l-13.63 0c-4.3,0 -8.45,2.67 -10.37,6.82l-6.96 14.82c-2.97,6.23 -8.6,9.78 -17.19,9.78l0 -51.54z"/>
  <path class="fil7" d="M308.18 138.37c2.52,0 4.45,-1.92 4.45,-4.45l0 -4.15c0,-26.08 -15.86,-40.16 -42.23,-40.16 -26.23,0 -42.24,14.52 -42.24,41.2 0,26.82 15.86,41.05 42.24,41.05 23.71,0 39.56,-5.34 39.56,-20.75 0,-2.52 -1.93,-4.44 -4.44,-4.44l-10.82 0c-3.7,0 -6.37,1.48 -8.3,3.85 -2.52,3.11 -8,4.89 -14.23,4.89 -12.15,0 -17.49,-5.19 -18.52,-17.04l54.53 0z"/>
  <path class="fil0" d="M32.7 78.4c-2.48,-5.25 2.07,-10.51 7.46,-10.51l14.34 0c5.1,0 8.99,3.85 10.97,8.26l22.13 49.35 22.13 -49.35c1.98,-4.41 5.87,-8.26 10.97,-8.26l43.02 0c20.25,0 37.68,11.76 37.68,33.32 0,13.57 -8.45,21.26 -19.6,25.23 3.73,3.39 6.66,7.82 9.28,11.97l11.94 18.91 0.01 0.02c1.62,2.62 2.48,6.02 0.59,8.76 -1.34,1.95 -3.57,2.74 -5.85,2.74l-15.68 0c-4.94,0 -10.45,-3.66 -13.02,-7.8l-11.11 -17.4c-3.26,-5.11 -7.19,-9.1 -13.66,-9.1l-18.59 0 0 -19.68 -20.84 45.23c-2.45,5.31 -6.5,8.76 -12.57,8.76l-9.38 0c-6.07,0 -10.12,-3.45 -12.57,-8.76l-37.65 -81.69z"/>
  <path class="fil8" d="M128.39 109.03l27.84 0c4.97,0 13.51,-1.35 13.51,-7.82 0,-6.47 -8.54,-7.82 -13.51,-7.82l-20.63 0 -7.21 15.64z"/>
  <path class="fil0" d="M742.52 106.06c10.97,0 16.3,5.93 16.74,17.04l-33.64 0c0.59,-11.11 6.22,-17.04 16.89,-17.04z"/>
  <path class="fil0" d="M491.49 155.41c-7.71,0 -11.71,-3.85 -11.71,-9.04 0,-4.89 4,-8.74 10.97,-8.74l22.23 0 0 11.26c-5.19,3.26 -12.59,6.52 -21.49,6.52z"/>
  <path class="fil0" d="M270.39 106.06c10.96,0 16.3,5.93 16.74,17.04l-33.64 0c0.59,-11.11 6.23,-17.04 16.89,-17.04z"/>
  <path class="fil9" d="M131.31 115.02l0 13.43 12.48 0c8.52,0 14.08,4.89 18.43,11.69l10.98 17.19c0.01,0.01 0.01,0.02 0.02,0.03 1.45,2.36 5.05,4.94 7.87,4.94l15.47 0c0.19,0 0.78,-0.03 0.95,-0.17 0.2,-0.48 -0.51,-1.85 -0.74,-2.23l-11.76 -18.63c-3.01,-4.77 -7.14,-11.13 -12.47,-13.56 -0.33,-0.15 -0.66,-0.29 -1,-0.41 -1.03,-0.38 -1.66,-1.36 -1.57,-2.45 0.08,-1.09 0.86,-1.96 1.93,-2.18 11.72,-2.32 22.39,-7.85 22.39,-21.24 0,-17.98 -14.62,-27.02 -31.32,-27.02l-42.46 0c-2.57,0 -4.52,2.56 -5.47,4.68l-25 55.75c-0.4,0.89 -1.23,1.42 -2.2,1.42 -0.97,0 -1.8,-0.54 -2.2,-1.42l-25 -55.75c-0.95,-2.12 -2.91,-4.68 -5.47,-4.68l-14.15 0c-0.96,0 -2.61,0.84 -2.06,2 0,0.01 0.01,0.02 0.01,0.03l37.16 80.63c1.45,3.14 3.44,5.23 7.07,5.23l9.26 0c3.63,0 5.63,-2.1 7.07,-5.23l31.26 -67.83c0.4,-0.87 1.23,-1.4 2.19,-1.4l22.57 0c8.49,0 19.21,3.34 19.21,13.59 0,10.25 -10.72,13.58 -19.21,13.58l-24.25 0z"/>
 </g>
</svg>
