<svg xmlns="http://www.w3.org/2000/svg" width="70" height="70" viewBox="0 0 240 240" fill="none" class="logo_svg color-invertion">
						<g clip-path="url(#clip0_64_2)">
							<rect x="5.45312" y="88.59" width="28.6397" height="28.6397" transform="rotate(-45 5.45312 88.59)" fill="black"></rect>
							<rect x="68.3384" y="213.296" width="28.6397" height="28.6397" transform="rotate(-45 68.3384 213.296)" fill="black"></rect>
							<rect x="130.158" y="25.7044" width="28.6397" height="28.6397" transform="rotate(-45 130.158 25.7044)" fill="black"></rect>
							<rect x="36.3628" y="119.5" width="28.6397" height="117.574" transform="rotate(-45 36.3628 119.5)" fill="black"></rect>
							<rect x="99.7007" y="182.432" width="74" height="28" transform="rotate(-45 99.7007 182.432)" fill="black"></rect>
							<rect x="233.547" y="150.41" width="28.6397" height="28.6397" transform="rotate(135 233.547 150.41)" fill="black"></rect>
							<rect x="202.637" y="119.5" width="28.6397" height="117.574" transform="rotate(135 202.637 119.5)" fill="black"></rect>
							<rect x="139.299" y="56.5675" width="74" height="28" transform="rotate(135 139.299 56.5675)" fill="black"></rect>
						</g>
						<defs>
							<clipPath id="clip0_64_2">
								<rect width="240" height="240" fill="white"></rect>
							</clipPath>
						</defs>
					</svg>