<svg width="105" height="105" viewBox="0 0 105 105" fill="none" xmlns="http://www.w3.org/2000/svg">
<path d="M16.4062 19.6875C16.4062 16.0576 19.3389 13.125 22.9688 13.125H36.0938C39.7236 13.125 42.6562 16.0576 42.6562 19.6875H62.3438C62.3438 16.0576 65.2764 13.125 68.9062 13.125H82.0312C85.6611 13.125 88.5938 16.0576 88.5938 19.6875H91.875C99.1143 19.6875 105 25.5732 105 32.8125V78.75C105 85.9893 99.1143 91.875 91.875 91.875H13.125C5.88574 91.875 0 85.9893 0 78.75V32.8125C0 25.5732 5.88574 19.6875 13.125 19.6875H16.4062ZM78.75 39.375C78.75 37.5703 77.2734 36.0938 75.4688 36.0938C73.6641 36.0938 72.1875 37.5703 72.1875 39.375V45.9375H65.625C63.8203 45.9375 62.3438 47.4141 62.3438 49.2188C62.3438 51.0234 63.8203 52.5 65.625 52.5H72.1875V59.0625C72.1875 60.8672 73.6641 62.3438 75.4688 62.3438C77.2734 62.3438 78.75 60.8672 78.75 59.0625V52.5H85.3125C87.1172 52.5 88.5938 51.0234 88.5938 49.2188C88.5938 47.4141 87.1172 45.9375 85.3125 45.9375H78.75V39.375ZM16.4062 49.2188C16.4062 51.0234 17.8828 52.5 19.6875 52.5H39.375C41.1797 52.5 42.6562 51.0234 42.6562 49.2188C42.6562 47.4141 41.1797 45.9375 39.375 45.9375H19.6875C17.8828 45.9375 16.4062 47.4141 16.4062 49.2188Z" fill="black"/>
</svg>
