<svg width="39" height="39" viewBox="0 0 39 39" fill="none" xmlns="http://www.w3.org/2000/svg">
<path d="M15.4322 11.0763C14.5334 11.3147 13.8337 11.8137 13.3508 12.5605C13.0536 13.0201 12.7941 13.7569 12.7941 14.1414V14.3833H13.6791H14.5641L14.6113 14.1039C14.7353 13.3702 15.395 12.8305 16.2508 12.7626C17.2962 12.6796 17.9419 13.1903 17.9419 14.0999C17.9419 14.9114 17.5057 15.5014 16.3057 16.3131C14.8865 17.2731 14.1828 17.8479 13.6652 18.47C13.0082 19.2596 12.7941 19.8301 12.7941 20.7915V21.4736L16.2343 21.4583C18.1264 21.4498 19.6995 21.4418 19.7302 21.4404C19.7608 21.4391 19.7768 21.0452 19.7658 20.565L19.7458 19.6921L19.318 19.679C19.0827 19.6718 18.0099 19.6637 16.934 19.6612L14.9777 19.6565L15.1871 19.435C15.4768 19.1287 16.3932 18.424 17.2871 17.8202C18.2877 17.1444 19.0602 16.3483 19.386 15.6571C19.9186 14.5273 19.8686 13.3268 19.2483 12.3525C18.8392 11.7099 18.0995 11.2127 17.3003 11.0431C16.7876 10.9343 15.9087 10.95 15.4322 11.0763Z" fill="#121212"/>
<path fill-rule="evenodd" clip-rule="evenodd" d="M25.2633 11.1945C25.0136 11.5552 22.8177 14.6676 21.1599 17.0107L20.637 17.7498V18.6744V19.599L21.7956 19.5745C22.4329 19.5611 23.4105 19.558 23.9682 19.5676L24.9821 19.5852L25.002 20.5171L25.0219 21.449L25.8775 21.4523L26.7331 21.4556L26.753 20.5204L26.7729 19.5852H27.4482H28.1234V18.6589V17.7325H27.4461H26.7688V14.3477V10.9629H26.0963H25.4238L25.2633 11.1945ZM23.7249 16.4956C24.1982 15.8238 24.6676 15.1551 24.768 15.0096C24.8685 14.864 24.9587 14.7438 24.9685 14.7423C24.9782 14.7408 24.9863 15.4093 24.9863 16.2278V17.7159L24.5191 17.7659C24.262 17.7934 23.7846 17.7936 23.4581 17.7665L22.8643 17.717L23.7249 16.4956Z" fill="#121212"/>
<path fill-rule="evenodd" clip-rule="evenodd" d="M17.2187 0.462461C18.0531 0.277046 19.3224 0.0806567 19.9597 0.0384003C23.0588 -0.16711 26.1927 0.455121 29.0147 1.83633C30.9472 2.78222 32.3934 3.82722 33.9473 5.40097L34.7396 6.20327L36.3671 4.84615C37.2623 4.09972 38.0054 3.49958 38.0183 3.51254C38.0561 3.55024 37.3485 11.3867 37.3033 11.4319C37.2822 11.453 29.4829 10.762 29.3876 10.7306C29.3574 10.7207 30.0363 10.1263 30.8963 9.40984C31.7561 8.69333 32.5018 8.05643 32.5533 7.9945C32.6344 7.89681 32.5338 7.77203 31.7933 7.05175C29.7476 5.06199 27.4562 3.78276 24.7568 3.12362C22.401 2.54842 19.8609 2.56195 17.4907 3.16245C15.4237 3.68606 13.2656 4.7724 11.6177 6.11876C10.9766 6.64244 9.56221 8.10688 9.19352 8.62856C9.03666 8.85053 8.88907 9.03367 8.86547 9.03552C8.83546 9.03794 6.90903 7.69372 6.68315 7.51279C6.67495 7.50624 6.91437 7.18151 7.21511 6.7913C7.86721 5.94517 9.24856 4.55207 10.0732 3.90881C12.1594 2.28141 14.8306 0.993124 17.2187 0.462461ZM4.36302 8.4429C4.41944 8.34952 4.55182 8.30204 4.77247 8.2229C4.83286 8.20124 4.89988 8.1772 4.97375 8.1492C5.21624 8.05735 5.43392 8.00348 5.45745 8.02956C5.4809 8.05564 5.95141 9.39167 6.50298 10.9986C7.05455 12.6054 7.81331 14.8149 8.1892 15.9085C8.56516 17.002 8.87082 17.9319 8.86854 17.975C8.86469 18.0495 8.01331 18.8051 7.90892 18.8267C7.86208 18.8364 7.4273 17.6228 5.84481 13.0651C5.47741 12.0069 4.96726 10.5401 4.71116 9.80554C4.66342 9.66863 4.61975 9.54547 4.58038 9.43446C4.36469 8.82625 4.27841 8.58295 4.36302 8.4429ZM1.00653 11.6043C1.51468 10.6386 2.28499 9.75096 3.16874 9.11291C3.38442 8.95713 3.58192 8.82873 3.60766 8.82744C3.6334 8.82623 3.70228 8.96141 3.76074 9.12801C4.36942 10.8624 6.62062 17.3104 6.92236 18.1836C7.13675 18.804 7.30231 19.336 7.29033 19.3658C7.27828 19.3957 6.93954 19.7015 6.53763 20.0456C6.13571 20.3895 5.80681 20.6835 5.80681 20.6986C5.80681 20.8248 6.41706 22.2283 6.80992 23.0056C8.23783 25.8312 10.7368 28.6944 13.5202 30.6941C14.8103 31.6209 16.5755 32.5812 17.7844 33.0138L18.3186 33.205L18.6044 32.8963C18.7616 32.7265 19.0667 32.3849 19.2823 32.1372L19.6745 31.6869L23.382 32.9814C25.4212 33.6933 27.7875 34.5183 28.6404 34.8147C29.4932 35.1111 30.1911 35.3756 30.1911 35.4025C30.1911 35.5081 29.7155 36.1606 29.3546 36.5503C28.2648 37.7268 26.7035 38.543 24.9122 38.8728C23.9793 39.0445 21.8741 39.0419 20.8866 38.8678C17.7779 38.3198 14.9847 37.1432 11.9742 35.1136C8.79132 32.9679 5.69815 29.8309 3.6503 26.6719C0.014899 21.0641 -0.981863 15.3832 1.00653 11.6043ZM36.0448 14.7147C36.0605 14.7024 36.6187 14.5776 37.2854 14.4374C37.952 14.2973 38.5333 14.1796 38.577 14.176C38.6662 14.1688 38.8619 15.3162 38.9526 16.3786C38.9845 16.7509 39.0053 17.063 38.9988 17.0721C38.9924 17.0812 38.3908 17.1102 37.6618 17.1365L36.3365 17.1843L36.2902 16.6924C36.2647 16.4218 36.1926 15.8712 36.13 15.4688C36.0675 15.0664 36.0292 14.727 36.0448 14.7147ZM35.9003 21.3338C36.008 20.8922 36.1189 20.3501 36.1464 20.1293C36.1932 19.7557 36.2098 19.7277 36.3845 19.7279C36.5921 19.728 38.8389 20.0096 38.8685 20.0392C38.9544 20.1251 38.3346 22.8631 38.2292 22.8631C38.1917 22.8631 37.6083 22.6997 36.9327 22.4999L35.7043 22.1367L35.9003 21.3338ZM33.8531 26.0898C34.0241 25.8241 34.2997 25.358 34.4656 25.0543C34.6314 24.7506 34.7923 24.5021 34.8231 24.5021C34.8736 24.5021 37.1061 25.5593 37.1692 25.6131C37.2424 25.6755 35.8098 28.1363 35.7002 28.1363C35.6523 28.1363 33.5422 26.6305 33.5422 26.5963C33.5422 26.5835 33.6821 26.3556 33.8531 26.0898ZM30.4903 29.7302C30.7375 29.5408 31.1395 29.2009 31.3836 28.9748C31.6276 28.7488 31.8527 28.5638 31.8837 28.5638C31.9147 28.5638 32.3566 28.983 32.8658 29.4952L33.7917 30.4267L33.3283 30.8537C32.8184 31.3236 31.6302 32.271 31.5566 32.2663C31.4995 32.2627 30.0927 30.2797 30.0625 30.1602C30.0506 30.113 30.2431 29.9196 30.4903 29.7302ZM20.2092 31.107C20.2092 31.0743 20.3914 30.8414 20.6141 30.5895C20.8367 30.3376 21.027 30.1315 21.0369 30.1315C21.0537 30.1315 24.5249 31.3249 28.9077 32.8376C29.9077 33.1827 30.7969 33.4864 30.8836 33.5124L31.0415 33.5598L30.8612 34.0369C30.762 34.2993 30.663 34.5709 30.641 34.6406L30.6394 34.6459L30.6378 34.6517L30.6351 34.6617L30.6334 34.6684C30.6286 34.6876 30.6246 34.7036 30.615 34.7147C30.5668 34.7707 30.3776 34.7051 29.239 34.3108L28.9077 34.1961C23.4233 32.2992 20.2092 31.1578 20.2092 31.107Z" fill="#4A90E2"/>
<path d="M12.7228 24.2527V25.9985H13.008H13.2932V25.2147V24.4308H14.0062H14.7192V25.2187V26.0067L15.0222 25.9847L15.3252 25.9629L15.3334 24.2348L15.3414 22.5068H15.0304H14.7192V23.2194V23.932H14.0062H13.2932V23.2194V22.5068H13.008H12.7228V24.2527Z" fill="#121212"/>
<path fill-rule="evenodd" clip-rule="evenodd" d="M16.5671 22.7091C16.1763 22.9568 16.0339 23.1656 15.8927 23.6986C15.5744 24.8998 16.2921 25.9961 17.398 25.9981C17.5184 25.9983 17.7909 25.9103 18.0037 25.8025C18.5468 25.5273 18.7927 25.1152 18.8384 24.4036C18.8816 23.7325 18.7366 23.2701 18.3719 22.9161C18.0389 22.5928 17.8129 22.5068 17.2953 22.5068C16.9683 22.5068 16.822 22.5474 16.5671 22.7091ZM16.4476 24.3901C16.4005 23.8033 16.5634 23.3379 16.8842 23.1424C17.6907 22.6509 18.45 23.5084 18.2079 24.637C18.0719 25.2703 17.5555 25.6141 17.0544 25.4049C16.6826 25.2496 16.4909 24.9291 16.4476 24.3901Z" fill="#121212"/>
<path d="M19.3661 23.8914C19.3873 25.1581 19.4018 25.2926 19.5363 25.4725C19.8421 25.8814 20.0288 25.9629 20.6601 25.9629C21.335 25.9629 21.5881 25.8641 21.8287 25.507C21.9846 25.2754 21.9917 25.2045 21.9917 23.8858V22.5068H21.7065H21.4213V23.7799C21.4213 24.954 21.41 25.0673 21.2757 25.238C21.026 25.5553 20.4315 25.5793 20.1362 25.2841C20.0061 25.1542 19.9953 25.0427 19.9953 23.8251V22.5068H19.6691H19.3427L19.3661 23.8914Z" fill="#121212"/>
<path fill-rule="evenodd" clip-rule="evenodd" d="M22.6334 24.217V25.9272H22.9186H23.2038V25.2112V24.4953L23.6494 24.5165L24.095 24.5377L24.4309 25.2325L24.7667 25.9272H25.091H25.4154L25.0581 25.2157L24.7009 24.5042L24.9615 24.2655C25.1878 24.0582 25.2264 23.9751 25.2546 23.6347C25.2939 23.1625 25.1574 22.8506 24.8224 22.6465C24.6253 22.5264 24.4603 22.5073 23.6138 22.5071L22.6334 22.5068V24.217ZM23.2038 24.0033V23.5044V23.0056H23.7583C24.4728 23.0056 24.6298 23.1022 24.6298 23.5416C24.6298 23.9459 24.524 24.0033 23.7789 24.0033H23.2038Z" fill="#121212"/>
<path d="M26.5905 22.5082C26.0141 22.5932 25.6993 22.9124 25.6993 23.4119C25.6993 23.5855 25.7337 23.792 25.7758 23.8706C25.8186 23.9504 26.2046 24.1793 26.6493 24.3883C27.5647 24.8188 27.6833 24.9218 27.5644 25.1826C27.3574 25.6367 26.346 25.5791 26.2273 25.1065C26.1895 24.9561 26.1414 24.9296 25.9055 24.9296C25.6651 24.9296 25.628 24.9511 25.6283 25.09C25.6287 25.3761 25.898 25.7148 26.2481 25.8695C26.6469 26.0459 27.432 26.0229 27.7324 25.8261C27.9949 25.6543 28.1942 25.293 28.1945 24.9886C28.1949 24.59 27.9488 24.3583 27.147 24.0021C26.7625 23.8314 26.4078 23.6616 26.3588 23.6249C26.217 23.5188 26.2553 23.2375 26.4282 23.1166C26.7469 22.8934 27.4817 23.0425 27.4817 23.3304C27.4817 23.4025 27.5654 23.4332 27.7627 23.4332C27.9173 23.4332 28.0603 23.4065 28.0804 23.3738C28.1389 23.2792 27.8906 22.8498 27.6956 22.7083C27.4713 22.5455 26.9623 22.4534 26.5905 22.5082Z" fill="#121212"/>
</svg>
