<svg width="39" height="39" viewBox="0 0 39 39" fill="none" xmlns="http://www.w3.org/2000/svg">
<g clip-path="url(#clip0_24_6)">
<path d="M39 19.5C39 8.7293 30.2707 0 19.5 0C8.7293 0 0 8.7293 0 19.5C0 28.6406 6.29941 36.3187 14.7926 38.4287V25.4566H10.7707V19.5H14.7926V16.933C14.7926 10.2984 17.7938 7.22109 24.3141 7.22109C25.548 7.22109 27.6809 7.46484 28.5568 7.70859V13.1016C28.0998 13.0559 27.3 13.0254 26.3021 13.0254C23.1029 13.0254 21.8689 14.2365 21.8689 17.3824V19.5H28.2369L27.14 25.4566H21.8613V38.8553C31.5199 37.6898 39 29.4709 39 19.5Z" fill="#4A90E2"/>
</g>
<defs>
<clipPath id="clip0_24_6">
<rect width="39" height="39" fill="white"/>
</clipPath>
</defs>
</svg>
