<svg width="105" height="105" viewBox="0 0 105 105" fill="none" xmlns="http://www.w3.org/2000/svg">
<g clip-path="url(#clip0_37_167)">
<path d="M6.5625 13.125C6.5625 5.88574 12.4482 0 19.6875 0H52.5C59.7393 0 65.625 5.88574 65.625 13.125V52.5H67.2656C77.2324 52.5 85.3125 60.5801 85.3125 70.5469V77.1094C85.3125 79.8369 87.5068 82.0312 90.2344 82.0312C92.9619 82.0312 95.1562 79.8369 95.1562 77.1094V45.5273C89.4961 44.0713 85.3125 38.9238 85.3125 32.8125V19.6875L78.75 13.125C76.9453 11.3203 76.9453 8.36719 78.75 6.5625C80.5547 4.75781 83.5078 4.75781 85.3125 6.5625L101.165 22.415C103.626 24.876 105 28.2188 105 31.7051V34.4736V39.3955V45.958V77.1299C105 85.292 98.3965 91.8955 90.2344 91.8955C82.0723 91.8955 75.4688 85.292 75.4688 77.1299V70.5674C75.4688 66.0352 71.7979 62.3643 67.2656 62.3643H65.625V91.8955C69.2549 91.8955 72.1875 94.8281 72.1875 98.458C72.1875 102.088 69.2549 105.021 65.625 105.021L6.5625 105C2.93262 105 0 102.067 0 98.4375C0 94.8076 2.93262 91.875 6.5625 91.875V13.125ZM19.6875 16.4062V36.0938C19.6875 37.8984 21.1641 39.375 22.9688 39.375H49.2188C51.0234 39.375 52.5 37.8984 52.5 36.0938V16.4062C52.5 14.6016 51.0234 13.125 49.2188 13.125H22.9688C21.1641 13.125 19.6875 14.6016 19.6875 16.4062Z" fill="black"/>
</g>
<defs>
<clipPath id="clip0_37_167">
<rect width="105" height="105" fill="white"/>
</clipPath>
</defs>
</svg>
