<svg width="35" height="39" viewBox="0 0 35 39" fill="none" xmlns="http://www.w3.org/2000/svg">
<g clip-path="url(#clip0_24_8)">
<path d="M17.7135 10.7402C12.8282 10.7402 8.88777 14.6478 8.88777 19.4924C8.88777 24.3369 12.8282 28.2445 17.7135 28.2445C22.5987 28.2445 26.5392 24.3369 26.5392 19.4924C26.5392 14.6478 22.5987 10.7402 17.7135 10.7402ZM17.7135 25.1824C14.5565 25.1824 11.9756 22.6307 11.9756 19.4924C11.9756 16.3541 14.5488 13.8023 17.7135 13.8023C20.8781 13.8023 23.4513 16.3541 23.4513 19.4924C23.4513 22.6307 20.8704 25.1824 17.7135 25.1824ZM28.9587 10.3822C28.9587 11.5172 28.037 12.4236 26.9002 12.4236C25.7557 12.4236 24.8416 11.5096 24.8416 10.3822C24.8416 9.25488 25.7634 8.34081 26.9002 8.34081C28.037 8.34081 28.9587 9.25488 28.9587 10.3822ZM34.8041 12.4541C34.6735 9.71953 34.0437 7.29726 32.0235 5.30156C30.0111 3.30585 27.5684 2.68124 24.8109 2.54413C21.9688 2.38417 13.4504 2.38417 10.6084 2.54413C7.85849 2.67363 5.41587 3.29824 3.39571 5.29394C1.37556 7.28964 0.753381 9.71191 0.615119 12.4465C0.453814 15.2648 0.453814 23.7123 0.615119 26.5307C0.7457 29.2652 1.37556 31.6875 3.39571 33.6832C5.41587 35.6789 7.85081 36.3035 10.6084 36.4406C13.4504 36.6006 21.9688 36.6006 24.8109 36.4406C27.5684 36.3111 30.0111 35.6865 32.0235 33.6832C34.036 31.6875 34.6659 29.2652 34.8041 26.5307C34.9654 23.7123 34.9654 15.2725 34.8041 12.4541ZM31.1325 29.5547C30.5334 31.0476 29.3735 32.1978 27.8603 32.7996C25.5944 33.6908 20.2175 33.4851 17.7135 33.4851C15.2094 33.4851 9.82487 33.6832 7.5666 32.7996C6.06109 32.2055 4.90123 31.0553 4.29441 29.5547C3.39571 27.3076 3.60311 21.9756 3.60311 19.4924C3.60311 17.0092 3.40339 11.6695 4.29441 9.43007C4.89355 7.9371 6.05341 6.78691 7.5666 6.18515C9.83256 5.29394 15.2094 5.4996 17.7135 5.4996C20.2175 5.4996 25.6021 5.30156 27.8603 6.18515C29.3658 6.77929 30.5257 7.92949 31.1325 9.43007C32.0312 11.6771 31.8238 17.0092 31.8238 19.4924C31.8238 21.9756 32.0312 27.3152 31.1325 29.5547Z" fill="#4A90E2"/>
</g>
<defs>
<clipPath id="clip0_24_8">
<rect width="34.4118" height="39" fill="white" transform="translate(0.5)"/>
</clipPath>
</defs>
</svg>
