<svg width="103" height="92" viewBox="0 0 103 92" fill="none" xmlns="http://www.w3.org/2000/svg">
<g clip-path="url(#clip0_52_373)">
<path d="M73.375 22.1236C73.375 32.1899 60.0495 50.1284 54.1979 57.5214C52.7943 59.2913 50.1875 59.2913 48.8021 57.5214C42.9505 50.1284 29.625 32.1899 29.625 22.1236C29.625 9.90032 39.4141 0 51.5 0C63.5859 0 73.375 9.90032 73.375 22.1236ZM74.8333 36.9464C75.4714 35.6743 76.0547 34.4022 76.5833 33.1486C76.6745 32.9273 76.7656 32.6876 76.8568 32.4664L98.0026 23.9119C100.883 22.7505 104 24.8891 104 28.0233V77.9489C104 79.7556 102.906 81.378 101.247 82.0602L74.8333 92.7348V36.9464ZM24.0833 25.4975C24.5208 28.097 25.3958 30.715 26.4167 33.1486C26.9453 34.4022 27.5286 35.6743 28.1667 36.9464V83.2954L4.9974 92.6795C2.11719 93.841 -1 91.7024 -1 88.5682V38.6426C-1 36.8358 0.09375 35.2134 1.7526 34.5313L24.1016 25.4975H24.0833ZM58.7552 61.2087C61.2891 58.0008 65.263 52.7833 69 47.0127V92.9745L34 82.853V47.0127C37.737 52.7833 41.7109 58.0008 44.2448 61.2087C47.9818 65.9284 55.0182 65.9284 58.7552 61.2087ZM51.5 28.0233C53.4339 28.0233 55.2885 27.2463 56.656 25.8633C58.0234 24.4803 58.7917 22.6046 58.7917 20.6487C58.7917 18.6929 58.0234 16.8171 56.656 15.4341C55.2885 14.0511 53.4339 13.2742 51.5 13.2742C49.5661 13.2742 47.7115 14.0511 46.344 15.4341C44.9766 16.8171 44.2083 18.6929 44.2083 20.6487C44.2083 22.6046 44.9766 24.4803 46.344 25.8633C47.7115 27.2463 49.5661 28.0233 51.5 28.0233Z" fill="#4A90E2"/>
</g>
<defs>
<clipPath id="clip0_52_373">
<rect width="103" height="92" fill="white"/>
</clipPath>
</defs>
</svg>
