<svg width="188" height="130" viewBox="0 0 188 130" fill="none" xmlns="http://www.w3.org/2000/svg">
<path d="M93.739 122.484L187.062 86.3122L175.983 56.7735L182.13 80.0848L176.356 76.4906L175.106 80.6243L168.154 76.2966L167.672 86.3123L93.739 122.484Z" fill="url(#paint0_linear_9_436)"/>
<path d="M93.739 122.484L187.062 88.1573L175.983 56.7735L182.13 80.0848L176.356 76.4906L175.106 80.6243L168.154 76.2966L167.672 86.3123L93.739 122.484Z" fill="url(#paint1_linear_9_436)"/>
<path d="M138.318 92.8813C138.318 89.0769 138.676 86.606 135.995 83.9159C133.314 81.2258 127.813 80.3297 124.022 80.3297C120.23 80.3297 114.908 81.2258 112.227 83.9159C109.546 86.606 109.725 89.0769 109.725 92.8813H112.512C112.512 89.8185 113.725 86.8812 115.883 84.7154C118.042 82.5497 120.969 81.333 124.022 81.333C127.074 81.333 130.002 82.5497 132.16 84.7154C134.319 86.8812 135.531 89.8185 135.531 92.8813H138.318Z" fill="white"/>
<path d="M138.572 117.233L140.737 115.06C141.412 114.383 141.974 113.808 142.424 113.333C142.873 112.858 143.21 112.407 143.435 111.979C143.672 111.552 143.79 111.083 143.79 110.572C143.79 109.884 143.613 109.391 143.258 109.094C142.915 108.785 142.477 108.631 141.944 108.631C141.447 108.631 141.015 108.72 140.649 108.898C140.282 109.064 139.962 109.231 139.69 109.397C139.454 109.539 139.252 109.652 139.087 109.735C138.933 109.818 138.791 109.86 138.661 109.86C138.566 109.86 138.483 109.812 138.412 109.717C138.341 109.622 138.288 109.498 138.252 109.343C138.229 109.189 138.217 109.023 138.217 108.845C138.217 108.56 138.365 108.293 138.661 108.043C138.957 107.794 139.383 107.592 139.939 107.438C140.507 107.284 141.193 107.206 141.998 107.206C142.838 107.206 143.565 107.319 144.181 107.545C144.796 107.758 145.275 108.091 145.618 108.542C145.962 108.981 146.133 109.545 146.133 110.234C146.133 110.875 146.015 111.457 145.778 111.979C145.553 112.49 145.258 112.965 144.891 113.404C144.524 113.843 144.122 114.253 143.684 114.633C143.246 115.013 142.814 115.387 142.388 115.755L139.104 118.604L139.175 118.391L145.246 117.536C145.471 117.5 145.672 117.47 145.849 117.447C146.027 117.423 146.175 117.411 146.293 117.411C146.435 117.411 146.506 117.494 146.506 117.66C146.506 117.803 146.476 117.981 146.417 118.195C146.37 118.408 146.293 118.622 146.186 118.836C146.08 119.049 145.95 119.233 145.796 119.388C145.654 119.53 145.488 119.602 145.299 119.602H143.222C142.962 119.602 142.637 119.607 142.246 119.619C141.856 119.631 141.441 119.643 141.004 119.655C140.578 119.679 140.163 119.697 139.761 119.708C139.359 119.732 139.016 119.75 138.732 119.762C138.448 119.774 138.258 119.78 138.164 119.78C137.998 119.78 137.874 119.732 137.791 119.637C137.708 119.542 137.649 119.429 137.614 119.299C137.59 119.156 137.578 119.038 137.578 118.943C137.578 118.705 137.637 118.468 137.755 118.23C137.874 117.993 138.146 117.66 138.572 117.233Z" fill="#FF0A0A"/>
<path d="M147.129 116.147C147.129 115.909 147.158 115.701 147.217 115.523C147.288 115.333 147.436 115.09 147.661 114.793C147.898 114.484 148.253 114.051 148.726 113.493L153.057 108.417C153.341 108.085 153.572 107.836 153.749 107.669C153.938 107.491 154.122 107.373 154.299 107.313C154.477 107.254 154.69 107.224 154.938 107.224H155.56C155.773 107.224 155.92 107.284 156.003 107.402C156.098 107.509 156.145 107.723 156.145 108.043C156.145 108.328 156.133 108.613 156.11 108.898C156.086 109.183 156.051 109.516 156.003 109.896C155.968 110.275 155.92 110.744 155.861 111.302L154.974 119.744H153.554C153.447 119.744 153.359 119.702 153.288 119.619C153.217 119.536 153.163 119.412 153.128 119.245C153.092 119.079 153.075 118.883 153.075 118.658C153.075 118.337 153.086 117.981 153.11 117.589C153.134 117.197 153.163 116.811 153.199 116.432C153.234 116.052 153.264 115.719 153.288 115.434L154.051 108.204L154.566 108.72L148.495 116.022L147.963 115.31H153.873C154.382 115.31 154.861 115.292 155.311 115.256C155.761 115.22 156.139 115.185 156.447 115.149C156.755 115.114 156.95 115.096 157.033 115.096C157.127 115.096 157.198 115.126 157.246 115.185C157.293 115.232 157.317 115.304 157.317 115.399C157.317 115.577 157.198 115.767 156.962 115.968C156.725 116.158 156.429 116.319 156.074 116.449C155.731 116.58 155.394 116.645 155.063 116.645L147.626 116.681C147.448 116.681 147.318 116.645 147.235 116.574C147.164 116.491 147.129 116.348 147.129 116.147Z" fill="#FF0A0A"/>
<path d="M161.968 108.186C161.968 108.411 161.951 108.607 161.915 108.774C161.892 108.94 161.862 109.094 161.826 109.237L158.419 122.024C158.371 122.19 158.306 122.332 158.223 122.451C158.152 122.57 158.04 122.629 157.886 122.629C157.768 122.629 157.638 122.522 157.496 122.309C157.365 122.095 157.3 121.893 157.3 121.703C157.3 121.549 157.312 121.365 157.336 121.151C157.371 120.949 157.419 120.735 157.478 120.51L160.797 107.652C160.844 107.474 160.904 107.355 160.975 107.295C161.046 107.236 161.134 107.206 161.241 107.206C161.43 107.206 161.596 107.325 161.738 107.563C161.892 107.788 161.968 107.996 161.968 108.186Z" fill="#FF0A0A"/>
<path d="M162.871 109.165C162.883 108.869 162.924 108.596 162.995 108.346C163.078 108.097 163.179 107.895 163.297 107.741C163.416 107.574 163.546 107.491 163.688 107.491H172.332C172.414 107.491 172.48 107.521 172.527 107.58C172.586 107.64 172.61 107.711 172.598 107.794C172.574 108.115 172.509 108.382 172.403 108.596C172.308 108.797 172.178 108.981 172.012 109.148C171.858 109.314 171.669 109.51 171.444 109.735C170.462 110.721 169.693 111.653 169.137 112.531C168.581 113.398 168.19 114.223 167.965 115.007C167.74 115.79 167.628 116.556 167.628 117.304C167.628 117.672 167.681 117.999 167.788 118.284C167.894 118.569 167.948 118.788 167.948 118.943C167.948 119.097 167.853 119.233 167.664 119.352C167.474 119.459 167.249 119.554 166.989 119.637C166.729 119.72 166.48 119.78 166.244 119.815C166.007 119.863 165.841 119.886 165.747 119.886C165.569 119.886 165.433 119.774 165.338 119.548C165.244 119.323 165.196 118.859 165.196 118.159C165.196 117.328 165.332 116.485 165.605 115.63C165.877 114.763 166.261 113.914 166.758 113.083C167.267 112.24 167.871 111.439 168.569 110.679C169.267 109.907 170.042 109.195 170.894 108.542L171.746 108.88L164.557 109.486C164.202 109.51 163.948 109.533 163.794 109.557C163.64 109.581 163.451 109.593 163.226 109.593C163.096 109.593 163.001 109.551 162.942 109.468C162.883 109.385 162.859 109.284 162.871 109.165Z" fill="#FF0A0A"/>
<path d="M182.454 124.549C182.744 124.649 183.059 124.493 183.156 124.201C187.91 109.925 189.189 94.7123 186.885 79.8339C184.553 64.772 178.616 50.5018 169.585 38.2452C160.554 25.9887 148.696 16.111 135.028 9.45807C121.36 2.80514 106.288 -0.424825 91.104 0.0447775C75.9197 0.51438 61.075 4.66956 47.8412 12.1545C34.6073 19.6394 23.3787 30.231 15.1168 43.0224C6.8549 55.8138 1.8059 70.4237 0.402172 85.6012C-0.984463 100.594 1.22676 115.699 6.84735 129.654C6.96213 129.939 7.28644 130.075 7.56978 129.958L7.70217 129.904C7.9855 129.787 8.12057 129.461 8.00582 129.176C2.46215 115.409 0.281349 100.508 1.64928 85.7173C3.0343 70.7421 8.01603 56.3268 16.1679 43.7059C24.3197 31.0849 35.3987 20.6344 48.4562 13.2492C61.5137 5.86402 76.1606 1.76421 91.1426 1.30086C106.125 0.837515 120.995 4.02444 134.481 10.5887C147.967 17.153 159.667 26.8991 168.578 38.9923C177.489 51.0856 183.346 65.1656 185.648 80.0268C187.921 94.7046 186.659 109.712 181.971 123.796C181.874 124.088 182.028 124.404 182.318 124.503L182.454 124.549Z" fill="white"/>
<path fill-rule="evenodd" clip-rule="evenodd" d="M42.7424 101.628C47.6773 101.628 51.6778 97.6136 51.6778 92.6621C51.6778 87.7107 47.6773 83.6967 42.7424 83.6967C37.8076 83.6967 33.8071 87.7107 33.8071 92.6621C33.8071 97.6136 37.8076 101.628 42.7424 101.628ZM42.7424 98.7586C46.0981 98.7586 48.8185 96.0291 48.8185 92.6621C48.8185 89.2951 46.0981 86.5656 42.7424 86.5656C39.3867 86.5656 36.6664 89.2951 36.6664 92.6621C36.6664 96.0291 39.3867 98.7586 42.7424 98.7586Z" fill="white"/>
<path d="M43.6039 92.3434C43.6039 92.8386 43.2038 93.24 42.7103 93.24C42.2168 93.24 41.8168 92.8386 41.8168 92.3434C41.8168 91.8483 42.2168 91.4469 42.7103 91.4469C43.2038 91.4469 43.6039 91.8483 43.6039 92.3434Z" fill="white"/>
<path fill-rule="evenodd" clip-rule="evenodd" d="M124.022 101.488C128.957 101.488 132.957 97.4741 132.957 92.5227C132.957 87.5712 128.957 83.5573 124.022 83.5573C119.087 83.5573 115.087 87.5712 115.087 92.5227C115.087 97.4741 119.087 101.488 124.022 101.488ZM124.022 98.6192C127.378 98.6192 130.098 95.8897 130.098 92.5227C130.098 89.1557 127.378 86.4262 124.022 86.4262C120.666 86.4262 117.946 89.1557 117.946 92.5227C117.946 95.8897 120.666 98.6192 124.022 98.6192Z" fill="white"/>
<path d="M124.884 92.204C124.884 92.6991 124.483 93.1005 123.99 93.1005C123.496 93.1005 123.096 92.6991 123.096 92.204C123.096 91.7088 123.496 91.3074 123.99 91.3074C124.483 91.3074 124.884 91.7088 124.884 92.204Z" fill="white"/>
<path d="M134.309 97.5433C135.046 96.0268 135.459 94.3232 135.459 92.5227C135.459 89.8088 134.52 87.315 132.951 85.3504H157.261V97.5433H134.309Z" fill="white"/>
<path d="M113.734 97.5433H73.9839V85.3504H115.093C113.523 87.315 112.585 89.8088 112.585 92.5227C112.585 94.3232 112.998 96.0268 113.734 97.5433Z" fill="white"/>
<path d="M55.7558 91.4469H60.4021V97.5433H55.7558V91.4469Z" fill="white"/>
<path d="M157.261 92.8813H161.55V97.5433H157.261V92.8813Z" fill="white"/>
<path d="M62.1892 91.4469H72.1968V97.5433H62.1892V91.4469Z" fill="white"/>
<path fill-rule="evenodd" clip-rule="evenodd" d="M38.7512 76.4542C35.1573 76.8105 32.1951 77.1042 28.4875 80.3259C27.5567 81.8354 26.9942 83.9256 26.6583 86.0495H32.0242C32.096 85.9166 32.1717 85.7892 32.2514 85.6679C42.4666 73.2669 54.5108 84.1415 54.5108 89.4834H72.336L72.7124 64.491C72.7124 64.491 63.6931 63.774 57.8271 64.4252C57.4681 64.465 57.1257 64.6001 56.8335 64.813C54.419 66.5728 52.6294 68.2602 50.8817 69.9081C48.777 71.8927 46.733 73.8199 43.7317 75.7471C41.8908 76.1429 40.265 76.3041 38.7512 76.4542ZM58.7693 67.5902C59.1294 67.2502 59.6052 67.0609 60.0997 67.0609H70.0523L68.7603 76.1288L50.1295 75.7471L58.7693 67.5902ZM28.5922 81.2263C29.2797 79.2656 33.2386 78.3574 33.2386 78.3574C33.2386 78.3574 31.9502 79.588 30.7369 81.4056C30.3706 81.9545 29.5955 83.0692 28.9499 83.1987C28.0561 83.378 28.2217 82.2832 28.5922 81.2263Z" fill="white"/>
<path d="M26.2202 97.0054H30.7366C30.7366 97.0054 30.6303 90.9662 31.3635 87.9571H26.3312C26.144 91.3909 26.2202 97.0054 26.2202 97.0054Z" fill="white"/>
<path d="M56.473 92.1641C56.473 88.3596 56.831 85.8888 54.1498 83.1987C51.4687 80.5085 45.9681 79.6125 42.1765 79.6125C38.3848 79.6125 33.0629 80.5085 30.3818 83.1987C27.7007 85.8888 27.8799 88.3596 27.8799 92.1641H30.6669C30.6669 89.1013 31.8795 86.1639 34.038 83.9982C36.1964 81.8325 39.1239 80.6158 42.1765 80.6158C45.229 80.6158 48.1565 81.8325 50.315 83.9982C52.4734 86.1639 53.686 89.1013 53.686 92.1641H56.473Z" fill="white"/>
<path d="M26.09 102.205H161.55V103.998H26.09V102.205Z" fill="white"/>
<path d="M28.2887 117.751C27.9041 117.751 27.5484 117.655 27.2215 117.462C26.8946 117.269 26.6351 117.008 26.4428 116.68C26.2505 116.352 26.1543 115.995 26.1543 115.61V114.64H28.3897V115.494H34.2736V113.671H28.2887C27.9041 113.671 27.5484 113.574 27.2215 113.381C26.8946 113.188 26.6351 112.933 26.4428 112.614C26.2505 112.286 26.1543 111.925 26.1543 111.529V109.474C26.1543 109.079 26.2505 108.722 26.4428 108.404C26.6351 108.076 26.8946 107.815 27.2215 107.622C27.5484 107.429 27.9041 107.333 28.2887 107.333H34.4034C34.788 107.333 35.1389 107.429 35.4562 107.622C35.783 107.815 36.0426 108.076 36.2349 108.404C36.4368 108.722 36.5378 109.079 36.5378 109.474V110.444H34.2736V109.59H28.3897V111.413H34.4034C34.788 111.413 35.1389 111.51 35.4562 111.703C35.783 111.896 36.0426 112.156 36.2349 112.484C36.4368 112.802 36.5378 113.159 36.5378 113.555V115.61C36.5378 115.995 36.4368 116.352 36.2349 116.68C36.0426 117.008 35.783 117.269 35.4562 117.462C35.1389 117.655 34.788 117.751 34.4034 117.751H28.2887Z" fill="white"/>
<path d="M38.0971 121.079V109.359H44.4858C44.8703 109.359 45.2212 109.455 45.5385 109.648C45.8558 109.841 46.1058 110.097 46.2884 110.415C46.4807 110.733 46.5769 111.08 46.5769 111.457V115.653C46.5769 116.029 46.4807 116.376 46.2884 116.695C46.1058 117.013 45.8558 117.269 45.5385 117.462C45.2212 117.655 44.8703 117.751 44.4858 117.751H40.3036V121.079H38.0971ZM40.3036 115.537H44.3704V111.572H40.3036V115.537Z" fill="white"/>
<path d="M49.736 117.751C49.3515 117.751 49.0006 117.655 48.6833 117.462C48.366 117.269 48.1112 117.013 47.919 116.695C47.7363 116.376 47.6449 116.029 47.6449 115.653V112.441H53.9183V111.572H47.6449V109.359H54.0336C54.4182 109.359 54.7691 109.455 55.0864 109.648C55.4037 109.841 55.6536 110.097 55.8363 110.415C56.0286 110.733 56.1247 111.08 56.1247 111.457V117.751H49.736ZM49.8514 115.537H53.9183V114.38H49.8514V115.537Z" fill="white"/>
<path d="M59.3677 117.751C58.9928 117.751 58.6467 117.655 58.3294 117.462C58.0121 117.269 57.7574 117.013 57.5651 116.695C57.3728 116.376 57.2766 116.029 57.2766 115.653V115.233H59.4831V115.537H63.55V114.669H59.3677C58.9928 114.669 58.6467 114.573 58.3294 114.38C58.0121 114.187 57.7574 113.931 57.5651 113.613C57.3728 113.294 57.2766 112.947 57.2766 112.571V111.457C57.2766 111.08 57.3728 110.733 57.5651 110.415C57.7574 110.097 58.0121 109.841 58.3294 109.648C58.6467 109.455 58.9928 109.359 59.3677 109.359H63.6653C64.0499 109.359 64.4008 109.455 64.7181 109.648C65.0354 109.841 65.2901 110.097 65.4824 110.415C65.6747 110.733 65.7709 111.08 65.7709 111.457V111.876H63.55V111.572H59.4831V112.441H63.6653C64.0499 112.441 64.4008 112.537 64.7181 112.73C65.0354 112.923 65.2901 113.179 65.4824 113.497C65.6747 113.815 65.7709 114.163 65.7709 114.539V115.653C65.7709 116.029 65.6747 116.376 65.4824 116.695C65.2901 117.013 65.0354 117.269 64.7181 117.462C64.4008 117.655 64.0499 117.751 63.6653 117.751H59.3677Z" fill="white"/>
<path d="M67.3074 117.751V109.474C67.3074 109.079 67.4035 108.722 67.5958 108.404C67.7881 108.076 68.0477 107.815 68.3746 107.622C68.7015 107.429 69.0572 107.333 69.4418 107.333H75.542C75.9362 107.333 76.2919 107.429 76.6092 107.622C76.9361 107.815 77.1957 108.076 77.388 108.404C77.5899 108.722 77.6908 109.079 77.6908 109.474V117.751H75.4267V114.394H69.5427V117.751H67.3074ZM69.5427 112.137H75.4267V109.59H69.5427V112.137Z" fill="white"/>
<path d="M81.3818 117.751C80.9972 117.751 80.6463 117.655 80.329 117.462C80.0118 117.269 79.757 117.013 79.5647 116.695C79.382 116.376 79.2907 116.029 79.2907 115.653V109.359H81.4972V115.537H85.564V109.359H87.7705V115.653C87.7705 116.029 87.6743 116.376 87.482 116.695C87.2994 117.013 87.0494 117.269 86.7321 117.462C86.4149 117.655 86.0639 117.751 85.6794 117.751H81.3818Z" fill="white"/>
<path d="M91.0715 117.751C90.6869 117.751 90.336 117.655 90.0188 117.462C89.7015 117.269 89.4467 117.013 89.2544 116.695C89.0621 116.376 88.966 116.029 88.966 115.653V106.87H91.1725V109.359H94.2731V111.572H91.1725V115.537H94.2731V117.751H91.0715Z" fill="white"/>
<path d="M97.5348 117.751C97.1598 117.751 96.8137 117.655 96.4964 117.462C96.1792 117.269 95.9244 117.013 95.7321 116.695C95.5398 116.376 95.4437 116.029 95.4437 115.653V111.457C95.4437 111.08 95.5398 110.733 95.7321 110.415C95.9244 110.097 96.1792 109.841 96.4964 109.648C96.8137 109.455 97.1598 109.359 97.5348 109.359H101.832C102.217 109.359 102.568 109.455 102.885 109.648C103.202 109.841 103.452 110.097 103.635 110.415C103.827 110.733 103.923 111.08 103.923 111.457V115.653C103.923 116.029 103.827 116.376 103.635 116.695C103.452 117.013 103.202 117.269 102.885 117.462C102.568 117.655 102.217 117.751 101.832 117.751H97.5348ZM97.6502 115.537H101.717V111.572H97.6502V115.537Z" fill="white"/>
<path d="M105.472 117.751V115.537H107.679V117.751H105.472Z" fill="white"/>
<path d="M108.838 117.751V109.359H118.904C119.289 109.359 119.64 109.455 119.957 109.648C120.274 109.841 120.524 110.097 120.707 110.415C120.899 110.733 120.995 111.08 120.995 111.457V117.751H118.803V111.572H116.034V117.751H113.813V111.572H111.044V117.751H108.838Z" fill="white"/>
<path d="M124.58 117.751C124.195 117.751 123.844 117.655 123.527 117.462C123.21 117.269 122.955 117.013 122.762 116.695C122.58 116.376 122.488 116.029 122.488 115.653V111.457C122.488 111.08 122.58 110.733 122.762 110.415C122.955 110.097 123.21 109.841 123.527 109.648C123.844 109.455 124.195 109.359 124.58 109.359H128.776V106.609H130.983V117.751H124.58ZM124.709 115.537H128.776V111.572H124.709V115.537Z" fill="white"/>
<path d="M73.9839 64.192H74.6987V84.9917H73.9839V64.192Z" fill="white"/>
<path d="M78.5385 80.5725C78.8262 80.213 79.3499 80.1555 79.7082 80.4441L80.0018 80.6805C80.3601 80.9691 80.4174 81.4946 80.1298 81.8541L75.9324 87.1009L74.3411 85.8193L78.5385 80.5725Z" fill="white"/>
<path d="M112.021 38.72C112.309 38.3605 112.833 38.303 113.191 38.5916L113.485 38.828C113.843 39.1166 113.9 39.6421 113.613 40.0016L89.5339 70.0994L87.9426 68.8178L112.021 38.72Z" fill="white"/>
<path d="M72.1964 63.7415L72.5464 63.1161L74.6983 64.192L74.3778 64.9707L72.1964 63.7415Z" fill="white"/>
<path fill-rule="evenodd" clip-rule="evenodd" d="M113.836 40.1647C115.316 40.1647 116.516 38.9605 116.516 37.475C116.516 35.9896 115.316 34.7854 113.836 34.7854C112.355 34.7854 111.155 35.9896 111.155 37.475C111.155 38.9605 112.355 40.1647 113.836 40.1647ZM113.836 38.7302C114.526 38.7302 115.086 38.1683 115.086 37.475C115.086 36.7818 114.526 36.2199 113.836 36.2199C113.145 36.2199 112.585 36.7818 112.585 37.475C112.585 38.1683 113.145 38.7302 113.836 38.7302Z" fill="white"/>
<path d="M76.0075 70.4247C79.113 67.0958 93.6725 66.0404 95.6488 66.0404C97.625 66.0404 98.0686 65.3502 98.0686 65.3502C98.0686 65.3502 100.408 64.1324 106.336 60.6005C112.265 57.0687 125.413 57.7995 125.413 57.7995C125.413 57.7995 130.777 57.6371 135.415 58.6114C140.053 59.5857 149.41 64.0106 149.41 64.0106C149.801 64.1932 152.879 64.6601 154.774 64.5789C156.67 64.4977 156.791 66.0404 156.791 68.5573C156.791 71.0742 157.718 71.7643 158.243 72.2515C158.767 72.7386 158.686 72.901 158.686 72.901L158.001 77.2853C157.96 79.1527 156.186 79.4369 156.186 79.4369L147.676 80.33C147.228 79.9487 146.606 79.9227 146.433 79.9232C146.017 82.5849 143.483 84.6331 140.416 84.6331C137.907 84.6331 135.753 83.2614 134.826 81.3043H91.0761C90.1486 83.2614 87.9948 84.6331 85.4853 84.6331C82.9697 84.6331 80.8113 83.2549 79.8875 81.2902C79.1231 81.2468 76.9418 81.0925 75.7252 80.6953C74.2329 80.2082 74.7169 79.3151 74.8379 78.4626C74.9589 77.6101 74.5556 76.108 74.5556 76.108C73.6279 72.3732 76.0075 70.4247 76.0075 70.4247ZM137.795 61.651C136.842 61.2621 136.079 61.0058 135.598 60.8568L138.666 64.8326H141.893C141.893 64.8326 139.474 62.336 137.795 61.651ZM140.578 83.2224C143.284 83.2224 145.478 81.0141 145.478 78.2901C145.478 75.566 143.284 73.3577 140.578 73.3577C137.871 73.3577 135.677 75.566 135.677 78.2901C135.677 81.0141 137.871 83.2224 140.578 83.2224ZM137.371 64.9849L133.983 60.3874C133.983 60.3874 131.548 59.474 129.779 59.3675C128.009 59.2609 122.852 58.9717 121.128 59.2L120.674 65.3198L137.371 64.9849ZM99.6214 66.4463L117.347 65.4111L118.829 59.0173C118.829 59.0173 111.69 59.4131 109.029 60.631C106.367 61.8489 100.075 65.5938 100.075 65.5938C100.075 65.5938 98.8046 66.1723 99.6214 66.4463ZM85.3744 83.2224C88.0807 83.2224 90.2746 81.0141 90.2746 78.2901C90.2746 75.566 88.0807 73.3577 85.3744 73.3577C82.6681 73.3577 80.4742 75.566 80.4742 78.2901C80.4742 81.0141 82.6681 83.2224 85.3744 83.2224ZM76.1688 72.5965C76.4713 72.6574 76.7335 72.6574 77.0561 72.3936C77.3788 72.1297 78.9517 70.1811 78.9517 70.1811C78.9517 70.1811 77.6208 70.1202 77.0964 70.3232C76.5721 70.5262 76.0478 72.3327 76.0478 72.3327C76.0478 72.3327 75.8663 72.5356 76.1688 72.5965Z" fill="white"/>
<path d="M2.20963 81.3283C2.33879 80.649 2.99235 80.2034 3.6694 80.333L20.0147 83.4617C20.6917 83.5913 21.1359 84.2471 21.0067 84.9264C20.8776 85.6057 20.224 86.0513 19.547 85.9218L3.20166 82.793C2.52462 82.6634 2.08047 82.0077 2.20963 81.3283Z" fill="white"/>
<path d="M12.7427 49.042C13.0386 48.4175 13.7832 48.1518 14.4057 48.4487L29.4342 55.6167C30.0567 55.9136 30.3214 56.6606 30.0255 57.2852C29.7296 57.9098 28.9851 58.1754 28.3626 57.8785L13.3341 50.7106C12.7116 50.4137 12.4468 49.6666 12.7427 49.042Z" fill="white"/>
<path d="M32.7941 24.082C33.2674 23.5792 34.0572 23.5565 34.5583 24.0314L46.6559 35.4953C47.157 35.9701 47.1796 36.7626 46.7063 37.2654C46.2331 37.7682 45.4432 37.7908 44.9421 37.316L32.8445 25.8521C32.3434 25.3773 32.3208 24.5847 32.7941 24.082Z" fill="white"/>
<path d="M62.822 6.9283C63.452 6.64791 64.1893 6.93309 64.4688 7.56527L71.2154 22.8275C71.4949 23.4597 71.2106 24.1994 70.5806 24.4798C69.9505 24.7602 69.2132 24.475 68.9337 23.8429L62.1871 8.58067C61.9077 7.94848 62.1919 7.2087 62.822 6.9283Z" fill="white"/>
<path d="M185.808 81.6011C185.682 80.9211 185.031 80.4718 184.354 80.5977L167.991 83.6362C167.314 83.7621 166.866 84.4154 166.991 85.0954C167.117 85.7754 167.768 86.2247 168.446 86.0988L184.808 83.0603C185.486 82.9344 185.933 82.2811 185.808 81.6011Z" fill="white"/>
<path d="M175.173 49.5354C174.88 48.9092 174.137 48.6395 173.513 48.9329L158.446 56.0179C157.822 56.3113 157.553 57.0569 157.845 57.6831C158.138 58.3093 158.881 58.5791 159.505 58.2856L174.572 51.2007C175.197 50.9072 175.465 50.1616 175.173 49.5354Z" fill="white"/>
<path d="M155.26 24.4666C154.79 23.9612 154 23.9342 153.496 24.4063L141.336 35.8033C140.832 36.2754 140.805 37.0678 141.276 37.5731C141.746 38.0785 142.536 38.1055 143.04 37.6334L155.2 26.2365C155.704 25.7644 155.731 24.972 155.26 24.4666Z" fill="white"/>
<path d="M125.604 6.86931C124.976 6.58545 124.237 6.86656 123.954 7.49719L117.124 22.7219C116.841 23.3526 117.121 24.0939 117.749 24.3778C118.378 24.6616 119.117 24.3805 119.4 23.7499L126.23 8.52515C126.513 7.89452 126.233 7.15318 125.604 6.86931Z" fill="white"/>
<path d="M94.2713 1.33804C93.582 1.33614 93.0217 1.89523 93.0198 2.5868L92.9741 19.2828C92.9722 19.9744 93.5294 20.5365 94.2187 20.5384C94.9079 20.5403 95.4682 19.9813 95.4701 19.2897L95.5158 2.59368C95.5177 1.90211 94.9605 1.33994 94.2713 1.33804Z" fill="white"/>
<defs>
<linearGradient id="paint0_linear_9_436" x1="130.599" y1="15.7912" x2="157.348" y2="47.2011" gradientUnits="userSpaceOnUse">
<stop stop-color="white"/>
<stop offset="1" stop-color="#999999"/>
</linearGradient>
<linearGradient id="paint1_linear_9_436" x1="130.599" y1="17.5988" x2="156.855" y2="48.9251" gradientUnits="userSpaceOnUse">
<stop stop-color="white"/>
<stop offset="1" stop-color="#999999"/>
</linearGradient>
</defs>
</svg>
