<svg width="108" height="79" viewBox="0 0 108 79" fill="none" xmlns="http://www.w3.org/2000/svg">
<g clip-path="url(#clip0_52_371)">
<path d="M10.125 -0.589355C4.53516 -0.589355 0 3.96586 0 9.58042C0 12.7797 1.49766 15.7882 4.05 17.7162L49.95 52.2935C52.3547 54.0944 55.6453 54.0944 58.05 52.2935L103.95 17.7162C106.502 15.7882 108 12.7797 108 9.58042C108 3.96586 103.465 -0.589355 97.875 -0.589355H10.125ZM0 23.1401V67.2092C0 74.6882 6.05391 80.7689 13.5 80.7689H94.5C101.946 80.7689 108 74.6882 108 67.2092V23.1401L62.1 57.7174C57.2906 61.3403 50.7094 61.3403 45.9 57.7174L0 23.1401Z" fill="#4A90E2"/>
</g>
<defs>
<clipPath id="clip0_52_371">
<rect width="108" height="79" fill="white"/>
</clipPath>
</defs>
</svg>
