<svg width="48" height="48" viewBox="0 0 48 48" fill="none" xmlns="http://www.w3.org/2000/svg">
<path d="M24 41.5C33.665 41.5 41.5 33.665 41.5 24C41.5 14.335 33.665 6.5 24 6.5C14.335 6.5 6.5 14.335 6.5 24C6.5 33.665 14.335 41.5 24 41.5Z" fill="#90B2F2"/>
<path d="M24 37.833C31.6397 37.833 37.833 31.6397 37.833 24C37.833 16.3602 31.6397 10.167 24 10.167C16.3602 10.167 10.167 16.3602 10.167 24C10.167 31.6397 16.3602 37.833 24 37.833Z" fill="#4A90E2"/>
<path d="M19.9861 27.125H23.3211C23.5971 27.125 23.8211 26.901 23.8211 26.625C23.8211 26.349 23.5971 26.125 23.3211 26.125H20.4861V24.445H23.3211C23.5971 24.445 23.8211 24.221 23.8211 23.945V21.376C23.8211 21.1 23.5971 20.876 23.3211 20.876H19.9861C19.7101 20.876 19.4861 21.1 19.4861 21.376C19.4861 21.652 19.7101 21.876 19.9861 21.876H22.8211V23.445H19.9861C19.7101 23.445 19.4861 23.669 19.4861 23.945V26.625C19.4861 26.901 19.7101 27.125 19.9861 27.125ZM24.9101 20.942C24.6341 20.942 24.4101 21.166 24.4101 21.442V24C24.4101 24.276 24.6341 24.5 24.9101 24.5H27.5081V26.625C27.5081 26.901 27.7321 27.125 28.0081 27.125C28.2841 27.125 28.5081 26.901 28.5081 26.625V21.502C28.5081 21.226 28.2841 21.002 28.0081 21.002C27.7321 21.002 27.5081 21.226 27.5081 21.502V23.5H25.4101V21.442C25.4101 21.166 25.1871 20.942 24.9101 20.942Z" fill="white"/>
<path d="M24.3281 14.335C24.0521 14.335 23.8281 14.559 23.8281 14.835C23.8281 15.111 24.0521 15.335 24.3281 15.335C29.1051 15.335 32.9921 19.222 32.9921 24C32.9921 28.778 29.1051 32.665 24.3281 32.665C19.7181 32.665 15.9481 29.044 15.6881 24.498C15.7681 24.547 15.8541 24.58 15.9451 24.58C16.0731 24.58 16.2011 24.531 16.2991 24.434C16.4941 24.239 16.4941 23.922 16.2991 23.727L15.5411 22.969C15.5041 22.932 15.4591 22.908 15.4141 22.885C15.4061 22.881 15.4031 22.872 15.3951 22.868C15.3921 22.867 15.3891 22.868 15.3871 22.867C15.3051 22.831 15.2161 22.824 15.1291 22.834C15.1081 22.837 15.0911 22.84 15.0711 22.845C14.9851 22.866 14.9021 22.901 14.8341 22.969L14.1541 23.649C13.9591 23.844 13.9591 24.161 14.1541 24.356C14.2951 24.497 14.5001 24.538 14.6751 24.474C14.9231 29.584 19.1581 33.664 24.3281 33.664C29.6571 33.664 33.9921 29.328 33.9921 23.999C33.9921 18.67 29.6571 14.335 24.3281 14.335Z" fill="white"/>
</svg>
