<svg width="39" height="40" viewBox="0 0 39 40" fill="none" xmlns="http://www.w3.org/2000/svg">
<g clip-path="url(#clip0_178_6)">
<path d="M19.5 0.625C8.72782 0.625 0 9.29688 0 20C0 30.7031 8.72782 39.375 19.5 39.375C30.2722 39.375 39 30.7031 39 20C39 9.29688 30.2722 0.625 19.5 0.625ZM28.5423 13.8047C28.2514 16.8672 26.9776 24.3047 26.3329 27.7344C26.0577 29.1875 25.523 29.6719 25.004 29.7187C23.8718 29.8203 23.0147 28.9766 21.9139 28.2578C20.1998 27.1406 19.2248 26.4453 17.5657 25.3516C15.6393 24.0937 16.8895 23.3984 17.9825 22.2656C18.2734 21.9688 23.2585 17.4609 23.3528 17.0547C23.3685 17 23.3764 16.8125 23.2585 16.7109C23.1405 16.6094 22.9754 16.6484 22.8575 16.6719C22.6845 16.7083 19.9429 18.5078 14.6329 22.0703C13.8571 22.6016 13.152 22.8594 12.5177 22.8437C11.8179 22.8281 10.4812 22.4531 9.48266 22.1328C8.26391 21.7422 7.28891 21.5313 7.3754 20.8594C7.41734 20.5104 7.90222 20.1536 8.83004 19.7891C14.5123 17.3307 18.3022 15.7083 20.1998 14.9219C25.6173 12.6875 26.7417 12.2969 27.473 12.2812C27.6381 12.2812 27.9919 12.3203 28.2278 12.5078C28.3818 12.6423 28.4799 12.8289 28.503 13.0313C28.5455 13.2868 28.5587 13.5462 28.5423 13.8047Z" fill="#4A90E2"/>
</g>
<defs>
<clipPath id="clip0_178_6">
<rect width="39" height="40" fill="white"/>
</clipPath>
</defs>
</svg>
