<svg width="40" height="39" viewBox="0 0 40 39" fill="none" xmlns="http://www.w3.org/2000/svg">
<g clip-path="url(#clip0_24_10)">
<path d="M34.2321 3.80097C33.2648 2.90976 29.3495 0.068551 20.6202 0.030465C20.6202 0.030465 10.3294 -0.586527 5.31729 4.01425C2.5294 6.80214 1.54679 10.8926 1.44015 15.958C1.33351 21.0234 1.20401 30.5144 10.3523 33.0891H10.3599L10.3523 37.0195C10.3523 37.0195 10.2913 38.6115 11.3425 38.9314C12.6069 39.3275 13.3534 38.1164 14.5646 36.8139C15.2273 36.0978 16.1413 35.0467 16.8345 34.2469C23.0958 34.7725 27.9023 33.5689 28.4507 33.3937C29.7151 32.9824 36.8677 32.0684 38.0255 22.5773C39.229 12.7816 37.4466 6.59648 34.2321 3.80097ZM35.2909 21.8613C34.3083 29.7832 28.5116 30.2859 27.4452 30.6287C26.9882 30.7734 22.7607 31.8246 17.4515 31.4818C17.4515 31.4818 13.4905 36.2578 12.2566 37.4994C11.8528 37.9031 11.411 37.865 11.4187 37.0652C11.4187 36.5396 11.4491 30.5373 11.4491 30.5373C11.4415 30.5373 11.4415 30.5373 11.4491 30.5373C3.69483 28.3893 4.15187 20.3074 4.23565 16.0799C4.31944 11.8523 5.11925 8.38652 7.48058 6.05566C11.7233 2.20898 20.4603 2.78027 20.4603 2.78027C27.8413 2.81074 31.3757 5.03496 32.1983 5.78144C34.9177 8.1123 36.304 13.6881 35.2909 21.8613ZM24.703 15.7066C24.7335 16.3617 23.7509 16.4074 23.7204 15.7523C23.6366 14.0766 22.8521 13.2615 21.2372 13.1701C20.5821 13.132 20.6431 12.1494 21.2905 12.1875C23.4157 12.3018 24.5964 13.5205 24.703 15.7066ZM26.2493 16.5674C26.3255 13.3377 24.3069 10.8088 20.4755 10.5269C19.828 10.4812 19.8966 9.49863 20.5441 9.54433C24.962 9.86425 27.3157 12.9035 27.2319 16.5902C27.2243 17.2453 26.2341 17.2148 26.2493 16.5674ZM29.8294 17.5881C29.837 18.2432 28.8468 18.2508 28.8468 17.5957C28.8011 11.3877 24.665 8.00566 19.6452 7.96757C18.9978 7.95996 18.9978 6.98496 19.6452 6.98496C25.2591 7.02304 29.7761 10.9002 29.8294 17.5881ZM28.9687 25.0605V25.0758C28.146 26.523 26.6073 28.1227 25.023 27.6123L25.0077 27.5894C23.4005 27.14 19.6148 25.19 17.223 23.2857C15.989 22.3107 14.8616 21.1605 13.9933 20.056C13.2087 19.0734 12.4165 17.908 11.6472 16.5064C10.0247 13.5738 9.66671 12.2637 9.66671 12.2637C9.15636 10.6793 10.7483 9.14062 12.2032 8.31796H12.2185C12.9192 7.95234 13.5896 8.07421 14.039 8.61504C14.039 8.61504 14.9835 9.74238 15.3872 10.2984C15.7681 10.8164 16.2784 11.6467 16.545 12.1113C17.0097 12.9416 16.7202 13.7871 16.2632 14.1375L15.3491 14.8687C14.8845 15.242 14.9454 15.9352 14.9454 15.9352C14.9454 15.9352 16.3013 21.0615 21.3667 22.3564C21.3667 22.3564 22.0599 22.4174 22.4331 21.9527L23.1644 21.0387C23.5148 20.5816 24.3603 20.2922 25.1905 20.7568C26.3103 21.3891 27.7347 22.3717 28.6792 23.2629C29.2124 23.6971 29.3343 24.3598 28.9687 25.0605Z" fill="#4A90E2"/>
</g>
<defs>
<clipPath id="clip0_24_10">
<rect width="39" height="39" fill="white" transform="translate(0.411621)"/>
</clipPath>
</defs>
</svg>
