<svg width="105" height="105" viewBox="0 0 105 105" fill="none" xmlns="http://www.w3.org/2000/svg">
<g clip-path="url(#clip0_37_151)">
<path d="M55.3824 51.5736C56.8823 51.5736 58.1619 50.4098 58.1619 48.8972C58.1619 47.3846 56.8823 46.2207 55.3824 46.2207C53.8826 46.2207 52.603 47.3846 52.603 48.8972C52.603 50.4098 53.8826 51.5736 55.3824 51.5736Z" stroke="black" stroke-width="1.49608"/>
<path d="M57.1325 56.7206C58.6107 56.7206 59.809 55.5223 59.809 54.0441C59.809 52.566 58.6107 51.3677 57.1325 51.3677C55.6544 51.3677 54.4561 52.566 54.4561 54.0441C54.4561 55.5223 55.6544 56.7206 57.1325 56.7206Z" stroke="black" stroke-width="1.49608"/>
<path d="M49.6178 51.5736C51.1176 51.5736 52.3972 50.4098 52.3972 48.8972C52.3972 47.3846 51.1176 46.2207 49.6178 46.2207C48.1179 46.2207 46.8384 47.3846 46.8384 48.8972C46.8384 50.4098 48.1179 51.5736 49.6178 51.5736Z" stroke="black" stroke-width="1.49608"/>
<path d="M47.8679 56.7206C49.3461 56.7206 50.5443 55.5223 50.5443 54.0441C50.5443 52.566 49.3461 51.3677 47.8679 51.3677C46.3897 51.3677 45.1914 52.566 45.1914 54.0441C45.1914 55.5223 46.3897 56.7206 47.8679 56.7206Z" stroke="black" stroke-width="1.49608"/>
<path d="M52.8088 60.2206C54.287 60.2206 55.4853 59.0223 55.4853 57.5441C55.4853 56.066 54.287 54.8677 52.8088 54.8677C51.3306 54.8677 50.1323 56.066 50.1323 57.5441C50.1323 59.0223 51.3306 60.2206 52.8088 60.2206Z" stroke="black" stroke-width="1.49608"/>
<path d="M86.4705 52.7059C86.4705 71.4674 71.2613 86.6765 52.4999 86.6765C33.7384 86.6765 18.5293 71.4674 18.5293 52.7059C18.5293 33.9445 33.7384 18.7354 52.4999 18.7354C71.2613 18.7354 86.4705 33.9445 86.4705 52.7059Z" stroke="black" stroke-width="3.20588"/>
<path d="M52.5002 98.3089C77.7997 98.3089 98.3091 77.7995 98.3091 52.5001C98.3091 27.2004 77.7997 6.69116 52.5002 6.69116C27.2008 6.69116 6.69141 27.2004 6.69141 52.5001C6.69141 77.7995 27.2008 98.3089 52.5002 98.3089Z" stroke="black" stroke-width="13.8922"/>
<path d="M77.1122 76.1202C71.6471 79.5735 77 75.6617 71.295 81.0031C65.1618 85.7499 52.5 52.7058 52.5 52.7058C52.5 52.7058 81.941 71.4411 77.1122 76.1202Z" fill="black"/>
<path d="M83.1991 38.5662C84.3821 44.922 82.7317 38.5007 85.5797 45.7785C87.7168 53.2339 52.333 52.7535 52.333 52.7535C52.333 52.7535 80.6418 32.3477 83.1991 38.5662Z" fill="black"/>
<path d="M49.3344 18.582C55.7193 19.5964 49.1162 19.0005 56.9276 18.7549C64.6681 19.2389 52.3625 52.4174 52.3625 52.4174C52.3625 52.4174 42.6185 18.9084 49.3344 18.582Z" fill="black"/>
<path d="M32.9829 80.5748C28.799 75.6464 33.4213 80.3994 27.3341 75.4979C21.7759 70.089 52.7236 52.9285 52.7236 52.9285C52.7236 52.9285 38.2916 84.7013 32.9829 80.5748Z" fill="black"/>
<path d="M19.4491 45.7788C22.2816 39.9673 19.7857 46.1096 21.8291 38.5663C24.5496 31.3034 52.6964 52.7512 52.6964 52.7512C52.6964 52.7512 17.8024 52.2978 19.4491 45.7788Z" fill="black"/>
<path d="M52.5 53.6324C53.1254 53.6324 53.6324 53.1254 53.6324 52.5C53.6324 51.8746 53.1254 51.3677 52.5 51.3677C51.8746 51.3677 51.3677 51.8746 51.3677 52.5C51.3677 53.1254 51.8746 53.6324 52.5 53.6324Z" fill="black" stroke="black" stroke-width="1.92353"/>
</g>
<defs>
<clipPath id="clip0_37_151">
<rect width="105" height="105" fill="white"/>
</clipPath>
</defs>
</svg>
